{"title":"Le Belle Verte 1996 DVDrip French Klam","uid":6702440,"size":1122145118,"categoryP":"video","categoryS":"movies","magnet":"?xt=urn:btih:201ad46deabb38464ef1d493f5b1e896661fcd4e&amp;dn=Le+Belle+Verte+1996+DVDrip+French+Klam&amp;tr=udp%3A%2F%2Ftracker.openbittorrent.com%3A80&amp;tr=udp%3A%2F%2Fopen.demonii.com%3A1337&amp;tr=udp%3A%2F%2Ftracker.coppersurfer.tk%3A6969&amp;tr=udp%3A%2F%2Fexodus.desync.com%3A6969","seeders":2,"leechers":0,"uploader":"Klambake","files":-1,"time":1317031650,"description":"With: Coline Serreau, Vincent Lindon en Marion Cotillard\n\nErgens in het universum is een planeet waar de bewoners in perfecte harmonie met de natuur leven. Af en toe gaan enkelen op excursie naar een andere planeet. Vreemd genoeg wil er al 200 jaar niemand meer de Aarde bezoeken, tot op een mooie dag Mila besluit om onze planeet, om persoonlijke redenen, te bezoeken. Ze landt in Parijs.\n\nIf you don't understand French you are gonna miss a lot in this film because the dialogues are incredible. It was really difficult to get a hold of this film in France and after seeing it I understand why. It shows our society for what it is and how we are all just a bunch of sheep following the leader.\n\nEnglish subs included, not hardcoded.\n\n------------------ Dutch Friends ------------------\nYou can find my Friends at: http://www.Film-Test.nl \n------ They got my dutch subs ----- and more ------\n\nGeneral:\n\nComplete name                    : Le Belle Verte\\Le Belle Verte.avi\nFormat                           : AVI\nFormat/Info                      : Audio Video Interleave\nFile size                        : 1.04 GiB\nDuration                         : 1h 29mn\nOverall bit rate                 : 1 667 Kbps\n\nVideo:\n\nFormat                           : MPEG-4 Visual\nFormat profile                   : Simple@L3\nFormat settings, BVOP            : No\nFormat settings, QPel            : No\nFormat settings, GMC             : No warppoints\nFormat settings, Matrix          : Default (H.263)\nCodec ID                         : XVID\nCodec ID/Hint                    : XviD\nDuration                         : 1h 29mn\nBit rate                         : 1 496 Kbps\nWidth                            : 720 pixels\nHeight                           : 304 pixels\nDisplay aspect ratio             : 2.35:1\nFrame rate                       : 23.976 fps\nColor space                      : YUV\nChroma subsampling               : 4:2:0\nBit depth                        : 8 bits\nScan type                        : Progressive\nBits/(Pixel*Frame)               : 0.285\nStream size                      : 960 MiB (90%)\nWriting library                  : XviD 1.1.2 (UTC 2006-11-01)\n\nAudio:\n\nFormat                           : AC-3\nFormat/Info                      : Audio Coding 3\nMode extension                   : CM (complete main)\nCodec ID                         : 2000\nDuration                         : 1h 29mn\nBit rate mode                    : Constant\nBit rate                         : 160 Kbps\nChannel(s)                       : 2 channels\nChannel positions                : Front: L R\nSampling rate                    : 48.0 KHz\nBit depth                        : 16 bits\nStream size                      : 103 MiB (10%)\nAlignment                        : Aligned on interleaves\nInterleave, duration             : 32 ms (0.77 video frame)\nInterleave, preload duration     : 32 ms\n\n","torrent":{"xt":"urn:btih:201ad46deabb38464ef1d493f5b1e896661fcd4e","amp;dn":"Le+Belle+Verte+1996+DVDrip+French+Klam","amp;tr":["udp%3A%2F%2Ftracker.openbittorrent.com%3A80","udp%3A%2F%2Fopen.demonii.com%3A1337","udp%3A%2F%2Ftracker.coppersurfer.tk%3A6969","udp%3A%2F%2Fexodus.desync.com%3A6969"],"infoHash":"201ad46deabb38464ef1d493f5b1e896661fcd4e","infoHashBuffer":{"type":"Buffer","data":[32,26,212,109,234,187,56,70,78,241,212,147,245,177,232,150,102,31,205,78]},"announce":[],"urlList":[]}}